<svg width="57" height="50" fill="none" xmlns="http://www.w3.org/2000/svg">
  <path d="M32.17 28.004h5.89c.787 0 1.524.384 1.968 1.025l4.057 6.02c1.34 0 2.383.87 2.383 2.593v4.446c0 1.296-1.068 2.352-2.383 2.352h-1.191M21.447 20.96H32.17v23.48H20.255m-9.532.001H4.766M39.245 49a3.5 3.5 0 1 0 0-7 3.5 3.5 0 0 0 0 7Zm-22.639 0a3.5 3.5 0 1 0 0-7 3.5 3.5 0 0 0 0 7Zm15.564-4.559h3.575m-1.192-9.393h9.532M0 33.874h19.064m-8.341-5.87h15.49m-17.873 0H5.959m13.105-7.044H16.68" stroke="#fff" stroke-width="2" stroke-miterlimit="10" stroke-linejoin="round"/>
  <path d="m45.277 15.089-7.15 3.522V5.696" stroke="#fff" stroke-width="2" stroke-miterlimit="10" stroke-linecap="round" stroke-linejoin="round"/>
  <path d="M20.608 15.114C22.253 7.063 29.47 1 38.128 1 47.997 1 56 8.885 56 18.611c0 5.233-2.315 9.932-5.992 13.158" stroke="#fff" stroke-width="2" stroke-miterlimit="10" stroke-linecap="round" stroke-linejoin="round"/>
</svg>