<svg width="58" height="53" fill="none" xmlns="http://www.w3.org/2000/svg">
  <path d="M29 11.2v2.55m-7.636-.5 1.273 2.208m-6.863 3.392 2.204 1.275M15.774 34.15l2.204-1.275m3.386 6.875 1.273-2.209M29 41.8v-2.55m7.636.5-1.272-2.209m6.862-3.391-2.204-1.275m2.204-14.025-2.204 1.275m-3.386-6.875-1.272 2.208M23.91 22.675l5.09 5.1 7.636-7.65" stroke="#fff" stroke-width="2" stroke-miterlimit="10"/>
  <path d="M41.983 4.562A25.295 25.295 0 0 0 29 1C14.941 1 3.545 12.416 3.545 26.5v1.275H1L7.364 36.7l5.09-8.925H9.91V26.5C9.91 15.938 18.457 7.375 29 7.375c6.8 0 12.77 3.562 16.152 8.926M14.05 47.141A25.314 25.314 0 0 0 29 52c14.058 0 25.454-11.416 25.454-25.5v-1.275H57L50.636 16.3l-5.09 8.925h2.545V26.5c0 10.562-8.548 19.125-19.091 19.125-6.8 0-12.77-3.562-16.152-8.926" stroke="#fff" stroke-width="2" stroke-miterlimit="10" stroke-linejoin="round"/>
</svg>