<svg width="57" height="50" viewBox="0 0 57 50" fill="none" xmlns="http://www.w3.org/2000/svg">
<path d="M32.1702 28.0039H38.0597C38.8473 28.0039 39.5836 28.3878 40.028 29.0289L44.0851 35.0484C45.4255 35.0484 46.468 35.9196 46.468 37.642V42.0882C46.468 43.3844 45.4005 44.4399 44.0851 44.4399H42.8936" stroke="white" stroke-width="2" stroke-miterlimit="10" stroke-linejoin="round"/>
<path d="M21.4469 20.9595H32.1703V44.4411H20.2554" stroke="white" stroke-width="2" stroke-miterlimit="10" stroke-linejoin="round"/>
<path d="M10.7233 44.4412H4.76587" stroke="white" stroke-width="2" stroke-miterlimit="10" stroke-linejoin="round"/>
<path d="M39.2446 49C41.1776 49 42.7446 47.433 42.7446 45.5C42.7446 43.567 41.1776 42 39.2446 42C37.3116 42 35.7446 43.567 35.7446 45.5C35.7446 47.433 37.3116 49 39.2446 49Z" stroke="white" stroke-width="2" stroke-miterlimit="10" stroke-linejoin="round"/>
<path d="M16.6064 49C18.5394 49 20.1064 47.433 20.1064 45.5C20.1064 43.567 18.5394 42 16.6064 42C14.6734 42 13.1064 43.567 13.1064 45.5C13.1064 47.433 14.6734 49 16.6064 49Z" stroke="white" stroke-width="2" stroke-miterlimit="10" stroke-linejoin="round"/>
<path d="M32.1702 44.4412H35.7446" stroke="white" stroke-width="2" stroke-miterlimit="10" stroke-linejoin="round"/>
<path d="M34.5532 35.0483H44.0851" stroke="white" stroke-width="2" stroke-miterlimit="10" stroke-linejoin="round"/>
<path d="M0 33.8745H19.0638" stroke="white" stroke-width="2" stroke-miterlimit="10" stroke-linejoin="round"/>
<path d="M10.7234 28.0039H26.2128" stroke="white" stroke-width="2" stroke-miterlimit="10" stroke-linejoin="round"/>
<path d="M8.3405 28.0039H5.95752" stroke="white" stroke-width="2" stroke-miterlimit="10" stroke-linejoin="round"/>
<path d="M19.0639 20.9595H16.6809" stroke="white" stroke-width="2" stroke-miterlimit="10" stroke-linejoin="round"/>
<path d="M45.2766 15.089L38.1277 18.6112V5.69629" stroke="white" stroke-width="2" stroke-miterlimit="10" stroke-linecap="round" stroke-linejoin="round"/>
<path d="M20.6079 15.1136C22.2534 7.06296 29.4714 1 38.1275 1C47.9978 1 55.9999 8.88514 55.9999 18.6112C55.9999 23.8441 53.6848 28.5428 50.0079 31.7692" stroke="white" stroke-width="2" stroke-miterlimit="10" stroke-linecap="round" stroke-linejoin="round"/>
</svg>
