<svg width="24" height="24" viewBox="0 0 24 24" fill="none" xmlns="http://www.w3.org/2000/svg">
<path d="M3.00004 18.5001C2.83337 19.5001 2.40004 21.6001 2.00004 22.0001L4.50003 21.5L6.50003 21L8.50003 21.5C8.83336 21.6667 9.60003 22.1001 10 22.5C10.5 22.9999 12.5 22.5 13 22.0001C13.4 21.6002 15.1667 21.5001 16 21.5L18 20.5C18.5 20 19.6 19 20 19C20.5 19 22 16 22 15.5001C22 15.0002 22.5 14 23 13.5C23.5 13 22.5 11 22.5 10.5C22.5 10 22 7.5 21.5 7.5C21 7.5 21 6 20.5 5.50011C20 5.00022 18 4 17.5 3.50011C17 3.00022 16 2.50011 15.5 1.50011C15 0.500108 12.5 1.50011 12 1.50011H9.00003C8.50003 1.50011 6.00003 3.00011 5.50003 3.50011C5.00003 4.00011 4.00003 4.50011 3.50003 5.50011L3.5 5.50017C2.99999 6.50019 2.00003 8.50012 1.50004 9.00011C1.10004 9.40011 1.33337 11.1668 1.50004 12.0001L2.00004 15.5001L3.00004 18.5001Z" fill="#A6BF2A"/>
<path d="M20.1121 3.12365C17.8957 1.10909 15.018 0 12.0124 0C8.65802 0 5.4344 1.40514 3.17003 3.85583C-0.597145 7.93116 -1.0506 13.9344 2.04511 18.508L0.816999 24L6.22795 22.3089C7.98946 23.2722 9.98496 23.7805 12.0081 23.7805C15.3625 23.7805 18.5846 22.3754 20.8505 19.9247C23.0131 17.5837 24.1278 14.5467 23.9883 11.3754C23.8503 8.19977 22.4724 5.26963 20.1121 3.12365ZM4.39378 17.7498L4.29204 17.6141C3.03341 15.9519 2.36776 13.9734 2.36776 11.891C2.36776 6.63145 6.68432 2.35249 11.9892 2.35249C16.9961 2.35249 21.115 6.07546 21.5699 11.0375L21.5931 12.4513C21.2996 17.487 17.0818 21.4294 11.9892 21.4294C10.2001 21.4294 8.45309 20.937 6.93721 20.0084L6.79477 19.9218L3.69034 20.8893L4.39378 17.7498Z" fill="white"/>
<path d="M7.15665 7.14587C6.63198 7.74808 6.4474 8.51058 6.51862 9.34817C6.20759 12.6957 11.3061 17.948 14.6358 17.6288C15.6924 17.7198 16.6342 17.3833 17.2955 16.4446C17.5963 15.8338 17.528 15.4727 17.435 15.2879C17.1603 14.7492 15.3567 14.1586 14.7666 13.9203C14.4192 13.7788 13.6344 14.2958 13.4178 14.5803C13.2013 14.8647 12.8278 14.6669 12.8278 14.6669C11.9819 14.2481 9.73787 11.7945 9.39777 10.9165C9.39777 10.9165 9.23354 10.5266 9.54021 10.3417C9.84687 10.1554 10.4413 9.43049 10.3323 9.07234C10.2262 8.7142 9.36435 6.43969 9.36435 6.43969C9.36435 6.43969 9.07076 5.95013 8.04322 6.32994C8.04322 6.32994 7.58831 6.58555 7.15665 7.14587Z" fill="white"/>
</svg>
