<svg width="131" height="48" fill="none" xmlns="http://www.w3.org/2000/svg">
  <g clip-path="url(#a)">
    <path d="M20.415-.37 41.12 15.836v3.835l-20.705-11.9-20.706 11.9v-3.835L20.415-.37Z" fill="#A6BF2A"/>
    <path d="M3.601 19.829v19.18l16.814 8.925v-37.03L3.6 19.828Zm7.9-.979 5.41-2.075v12.154h-5.41V18.85Zm-5.409 2.074 4.359-1.671v9.676H6.092v-8.005Zm5.41 18.79v-9.728h5.41V41.67l-5.41-1.957Zm-5.41-1.958v-7.77h4.359v9.348l-4.359-1.578Z" fill="#00B2D2"/>
    <path d="M24.523 39.763V28.819c0-1.655.394-2.957 1.18-3.907.788-.95 1.963-1.425 3.527-1.425 1.57 0 2.75.474 3.545 1.425.794.95 1.19 2.252 1.19 3.907v1.905h-2.202v-2.039c0-2.037-.825-3.057-2.474-3.057-.825 0-1.443.266-1.856.797-.412.532-.618 1.286-.618 2.26v11.197c0 .974.206 1.727.618 2.259.413.532 1.03.798 1.856.798 1.65 0 2.474-1.019 2.474-3.057v-2.748h2.203v2.629c0 1.654-.397 2.955-1.191 3.9-.795.945-1.976 1.418-3.545 1.418-1.564 0-2.74-.473-3.527-1.418-.786-.945-1.18-2.246-1.18-3.9ZM35.104 25.85v-2.157h10.104v2.156H41.33v19.025h-2.35V25.849h-3.876Zm13.59 14.032c0 .985.208 1.74.626 2.267.417.527 1.043.79 1.878.79 1.669 0 2.503-1.02 2.503-3.057V28.685c0-.974-.205-1.727-.618-2.259-.413-.532-1.041-.798-1.885-.798-.835 0-1.46.266-1.878.798-.418.532-.626 1.285-.626 2.26v11.196Zm-2.291-.118V28.819c0-1.664.405-2.97 1.217-3.915.812-.945 2.004-1.418 3.578-1.418 1.588 0 2.794.473 3.618 1.418.823.946 1.235 2.251 1.235 3.915v10.945c0 1.644-.412 2.941-1.235 3.891-.824.95-2.03 1.426-3.618 1.426-1.564 0-2.755-.475-3.57-1.426-.817-.95-1.225-2.247-1.225-3.891Zm11.504 5.11v-1.816c0-.926.131-1.798.391-2.615a8.162 8.162 0 0 1 1.025-2.149c.423-.615.887-1.208 1.394-1.78a96.384 96.384 0 0 1 1.526-1.684c.51-.55.976-1.11 1.396-1.676a7.443 7.443 0 0 0 1.018-1.935 6.746 6.746 0 0 0 .388-2.283c0-1.112-.198-1.946-.593-2.503-.395-.556-1.018-.834-1.867-.834-.829 0-1.447.276-1.852.827-.405.552-.608 1.314-.608 2.289v1.877h-2.218v-1.714c0-1.674.394-2.991 1.181-3.951s1.972-1.44 3.556-1.44c1.583 0 2.77.475 3.563 1.425.792.95 1.188 2.262 1.188 3.936 0 .867-.132 1.7-.396 2.496a8.862 8.862 0 0 1-1.02 2.134 19.024 19.024 0 0 1-1.385 1.832 76.53 76.53 0 0 1-1.517 1.728 28.347 28.347 0 0 0-1.385 1.647 7.863 7.863 0 0 0-1.032 1.765 4.943 4.943 0 0 0-.403 1.943v.34h6.888v2.141h-9.238Zm11.153-5.14v-1.448h2.203v1.596c0 .974.204 1.727.615 2.259.41.532 1.025.798 1.844.798 1.64 0 2.46-1.088 2.46-3.264v-1.64c0-1.033-.217-1.809-.651-2.326-.434-.517-1.096-.79-1.983-.82h-1.26v-2.113h1.377c.79-.028 1.407-.294 1.851-.797.444-.502.666-1.206.666-2.112v-.96c0-2.206-.82-3.309-2.46-3.309-.819 0-1.434.271-1.844.813-.41.542-.615 1.3-.615 2.274v1.094H69.06v-.96c0-1.664.395-2.97 1.184-3.915.79-.945 1.969-1.417 3.537-1.417 1.574 0 2.76.472 3.556 1.417.796.945 1.196 2.25 1.196 3.915v.531c0 1.093-.216 2.014-.647 2.762-.43.748-1.067 1.28-1.908 1.596 1.703.64 2.555 2.102 2.555 4.386v1.64c0 1.674-.4 2.983-1.196 3.929-.797.945-1.982 1.418-3.556 1.418-1.568 0-2.747-.473-3.537-1.418-.789-.945-1.184-2.255-1.184-3.93Zm17.797.148c0 .985.208 1.74.626 2.267.417.527 1.043.79 1.878.79 1.669 0 2.504-1.02 2.504-3.057V28.685c0-.974-.206-1.727-.62-2.259-.412-.532-1.04-.798-1.884-.798-.835 0-1.46.266-1.878.798-.418.532-.626 1.285-.626 2.26v11.196Zm-2.291-.118V28.819c0-1.664.405-2.97 1.217-3.915.811-.945 2.004-1.418 3.578-1.418 1.588 0 2.794.473 3.618 1.418.823.946 1.235 2.251 1.235 3.915v10.945c0 1.644-.412 2.941-1.235 3.891-.824.95-2.03 1.426-3.618 1.426-1.564 0-2.754-.475-3.57-1.426-.816-.95-1.225-2.247-1.225-3.891Zm11.504 5.11v-21.18h2.35v10.235l5.597-10.236h2.363l-5.316 9.66 5.507 11.52h-2.408l-4.51-9.201-1.233 2.098v7.104h-2.35Zm11.932 0v-21.18h2.35v9.541h5.168v-9.542h2.35v21.18h-2.35v-9.526h-5.168v9.527h-2.35Zm14.674-6.293h4.575l-2.316-12.133-2.259 12.133Zm-3.375 6.293 4.021-21.18h3.453l4.025 21.18h-2.35l-.814-4.269h-5.337l-.795 4.269h-2.203Z" fill="#1C213F"/>
  </g>
  <defs>
    <clipPath id="a">
      <path fill="#fff" d="M0 0h130.8v48H0z"/>
    </clipPath>
  </defs>
</svg>
