<svg width="131" height="48" viewBox="0 0 131 48" fill="none" xmlns="http://www.w3.org/2000/svg">
<g clip-path="url(#clip0_411_1214)">
<path d="M20.4146 -0.370117L41.1199 15.8357V19.6714L20.4146 7.77132L-0.290771 19.6714V15.8357L20.4146 -0.370117Z" fill="#A6BF2A"/>
<path d="M3.60132 19.829V39.0084L20.4147 47.9341V10.9033L3.60132 19.829ZM11.5015 18.85L16.9117 16.775V28.9288H11.5015V18.85ZM6.09212 20.9241L10.4506 19.2525V28.9288H6.09212V20.9241ZM11.5015 39.7139V29.9857H16.9117V41.6711L11.5015 39.7139ZM6.09212 37.7558V29.9857H10.4506V39.3339L6.09212 37.7558Z" fill="#00B2D2"/>
<path d="M24.5234 39.763V28.8186C24.5234 27.1643 24.9168 25.8624 25.7034 24.9119C26.4909 23.9614 27.6658 23.4871 29.2296 23.4871C30.7995 23.4871 31.9804 23.9614 32.7748 24.9119C33.5692 25.8624 33.9659 27.1643 33.9659 28.8186V30.7239H31.7635V28.6853C31.7635 26.6475 30.9381 25.6278 29.289 25.6278C28.4636 25.6278 27.8457 25.8944 27.4334 26.4251C27.0211 26.9575 26.8146 27.7106 26.8146 28.6853V39.8816C26.8146 40.8563 27.0211 41.6094 27.4334 42.141C27.8457 42.6725 28.4636 42.9391 29.289 42.9391C30.9381 42.9391 31.7635 41.9202 31.7635 39.8816V37.134H33.9659V39.763C33.9659 41.4173 33.5692 42.7175 32.7748 43.6628C31.9804 44.6081 30.7995 45.0807 29.2296 45.0807C27.6658 45.0807 26.4909 44.6081 25.7034 43.6628C24.9168 42.7175 24.5234 41.4173 24.5234 39.763Z" fill="white"/>
<path d="M35.1038 25.8494V23.6931H45.2073V25.8494H41.3299V44.8738H38.9803V25.8494H35.1038Z" fill="white"/>
<path d="M48.694 39.8817C48.694 40.8669 48.9022 41.6226 49.3197 42.1489C49.7371 42.6761 50.3628 42.9392 51.1977 42.9392C52.8665 42.9392 53.7014 41.9195 53.7014 39.8817V28.6854C53.7014 27.7107 53.4957 26.9576 53.0826 26.4261C52.6703 25.8937 52.042 25.6279 51.1977 25.6279C50.3628 25.6279 49.7371 25.8937 49.3197 26.4261C48.9022 26.9576 48.694 27.7107 48.694 28.6854V39.8817ZM46.4028 39.764V28.8187C46.4028 27.155 46.8082 25.8496 47.6198 24.9043C48.4315 23.959 49.6235 23.4863 51.1977 23.4863C52.7856 23.4863 53.9923 23.959 54.816 24.9043C55.6388 25.8496 56.051 27.155 56.051 28.8187V39.764C56.051 41.4079 55.6388 42.7055 54.816 43.6551C53.9923 44.6056 52.7856 45.0808 51.1977 45.0808C49.6338 45.0808 48.4435 44.6056 47.6276 43.6551C46.8108 42.7055 46.4028 41.4079 46.4028 39.764Z" fill="white"/>
<path d="M57.9075 44.874V43.0578C57.9075 42.1316 58.0383 41.2599 58.2982 40.4427C58.559 39.6264 58.9007 38.9096 59.3233 38.2941C59.7467 37.6787 60.2106 37.0857 60.7167 36.5144C61.2228 35.943 61.7315 35.3812 62.2436 34.8298C62.754 34.2793 63.2196 33.72 63.6396 33.1539C64.0587 32.5878 64.3978 31.9429 64.6569 31.2192C64.9151 30.4946 65.0451 29.7346 65.0451 28.9365C65.0451 27.8241 64.8471 26.9896 64.4521 26.433C64.057 25.8773 63.4339 25.5985 62.5853 25.5985C61.7564 25.5985 61.1385 25.8747 60.7331 26.4261C60.3277 26.9775 60.1254 27.7401 60.1254 28.7149V30.5916H57.9075V28.8776C57.9075 27.2043 58.3008 25.8868 59.0883 24.9268C59.875 23.9668 61.0601 23.4863 62.6438 23.4863C64.2274 23.4863 65.4152 23.9616 66.207 24.9121C66.9988 25.8617 67.3947 27.174 67.3947 28.8482C67.3947 29.7155 67.263 30.5474 66.9988 31.3438C66.7346 32.142 66.3955 32.8535 65.9798 33.4785C65.5649 34.1044 65.1019 34.7147 64.5941 35.3102C64.0863 35.9058 63.5802 36.4823 63.0767 37.0381C62.5732 37.5947 62.1119 38.1435 61.6919 38.6854C61.2727 39.2273 60.9276 39.8151 60.6599 40.4505C60.3914 41.0859 60.2571 41.7325 60.2571 42.393V42.7323H67.1451V44.874H57.9075Z" fill="white"/>
<path d="M69.0601 39.7336V38.2862H71.2634V39.8816C71.2634 40.8563 71.4674 41.6094 71.8779 42.141C72.2876 42.6733 72.903 42.9391 73.7224 42.9391C75.3628 42.9391 76.1822 41.851 76.1822 39.6747V38.0352C76.1822 37.0016 75.9653 36.226 75.5306 35.7092C75.0969 35.1924 74.435 34.9188 73.5476 34.8894H72.2876V32.7764H73.6647C74.4548 32.7478 75.0719 32.482 75.516 31.9791C75.9601 31.477 76.1822 30.7732 76.1822 29.8669V28.9078C76.1822 26.7012 75.3628 25.5984 73.7224 25.5984C72.903 25.5984 72.2876 25.8693 71.8779 26.4112C71.4674 26.9531 71.2634 27.7106 71.2634 28.6853V29.7786H69.0601V28.8186C69.0601 27.1548 69.4551 25.8494 70.2444 24.9041C71.0336 23.9588 72.2127 23.4871 73.7809 23.4871C75.3551 23.4871 76.5402 23.9588 77.3372 24.9041C78.1333 25.8494 78.5327 27.1548 78.5327 28.8186V29.3501C78.5327 30.4434 78.3167 31.3645 77.8863 32.1124C77.456 32.8603 76.8191 33.3927 75.9782 33.7078C77.6806 34.3475 78.5327 35.8096 78.5327 38.094V39.7336C78.5327 41.4077 78.1333 42.7175 77.3372 43.6628C76.5402 44.6081 75.3551 45.0807 73.7809 45.0807C72.2127 45.0807 71.0336 44.6081 70.2444 43.6628C69.4551 42.7175 69.0601 41.4077 69.0601 39.7336Z" fill="white"/>
<path d="M86.8573 39.8817C86.8573 40.8669 87.0656 41.6226 87.483 42.1489C87.9004 42.6761 88.5261 42.9392 89.361 42.9392C91.0299 42.9392 91.8656 41.9195 91.8656 39.8817V28.6854C91.8656 27.7107 91.659 26.9576 91.2459 26.4261C90.8336 25.8937 90.2053 25.6279 89.361 25.6279C88.5261 25.6279 87.9004 25.8937 87.483 26.4261C87.0656 26.9576 86.8573 27.7107 86.8573 28.6854V39.8817ZM84.5662 39.764V28.8187C84.5662 27.155 84.9715 25.8496 85.7832 24.9043C86.5948 23.959 87.7868 23.4863 89.361 23.4863C90.949 23.4863 92.1556 23.959 92.9793 24.9043C93.8021 25.8496 94.2144 27.155 94.2144 28.8187V39.764C94.2144 41.4079 93.8021 42.7055 92.9793 43.6551C92.1556 44.6056 90.949 45.0808 89.361 45.0808C87.7971 45.0808 86.6068 44.6056 85.7909 43.6551C84.975 42.7055 84.5662 41.4079 84.5662 39.764Z" fill="white"/>
<path d="M96.0708 44.8738V23.6931H98.4205V33.9294L104.017 23.6931H106.38L101.064 33.3529L106.571 44.8738H104.163L99.6538 35.672L98.4205 37.7695V44.8738H96.0708Z" fill="white"/>
<path d="M108.002 44.8738V23.6931H110.352V33.2352H115.52V23.6931H117.87V44.8738H115.52V35.3474H110.352V44.8738H108.002Z" fill="white"/>
<path d="M122.676 38.5814H127.251L124.935 26.4485L122.676 38.5814ZM119.301 44.8738L123.322 23.6931H126.775L130.8 44.8738H128.45L127.636 40.6053H122.299L121.504 44.8738H119.301Z" fill="white"/>
</g>
<defs>
<clipPath id="clip0_411_1214">
<rect width="130.8" height="48" fill="white"/>
</clipPath>
</defs>
</svg>
