<svg width="108" height="40" fill="none" xmlns="http://www.w3.org/2000/svg">
  <g clip-path="url(#a)">
    <path d="m16.856-.309 17.096 13.505v3.197L16.856 6.476-.24 16.393v-3.197L16.856-.309Z" fill="#A6BF2A"/>
    <path d="M2.973 16.524v15.983l13.883 7.438V9.085l-13.883 7.44Zm6.523-.816 4.467-1.729v10.128H9.496v-8.399ZM5.03 17.437l3.599-1.393v8.063h-3.6v-6.67Zm4.466 15.658v-8.107h4.467v9.738l-4.467-1.631ZM5.03 31.463v-6.475h3.599v7.79l-3.6-1.315Z" fill="#00B2D2"/>
    <path d="M20.248 33.136v-9.12c0-1.38.325-2.464.975-3.256.65-.792 1.62-1.188 2.911-1.188 1.297 0 2.272.396 2.928 1.188.655.792.983 1.877.983 3.255v1.588h-1.819v-1.699c0-1.698-.681-2.547-2.043-2.547-.681 0-1.191.222-1.532.664-.34.444-.51 1.071-.51 1.883v9.33c0 .813.17 1.44.51 1.883.34.443.85.666 1.532.666 1.362 0 2.044-.85 2.044-2.548v-2.29h1.818v2.19c0 1.38-.328 2.463-.983 3.25-.656.788-1.631 1.182-2.928 1.182-1.29 0-2.26-.394-2.911-1.181-.65-.788-.974-1.872-.974-3.25Zm8.736-11.595v-1.797h8.343v1.797h-3.202v15.854h-1.94V21.54h-3.2Zm11.222 11.694c0 .82.172 1.45.516 1.889.345.44.862.658 1.551.658 1.378 0 2.067-.85 2.067-2.547v-9.33c0-.813-.17-1.44-.51-1.883-.341-.444-.86-.665-1.557-.665-.69 0-1.206.22-1.55.665-.345.443-.517 1.07-.517 1.882v9.33Zm-1.892-.099v-9.12c0-1.387.335-2.475 1.005-3.263.67-.787 1.654-1.181 2.954-1.181 1.311 0 2.307.394 2.988 1.181.679.788 1.02 1.876 1.02 3.262v9.121c0 1.37-.341 2.452-1.02 3.243-.68.792-1.677 1.188-2.988 1.188-1.291 0-2.274-.396-2.948-1.188-.674-.791-1.011-1.873-1.011-3.242Zm9.499 4.259V35.88c0-.772.108-1.498.323-2.179.215-.68.498-1.277.846-1.79.35-.513.733-1.007 1.151-1.483a79.09 79.09 0 0 1 1.26-1.404c.422-.46.807-.925 1.153-1.397s.627-1.01.84-1.612c.214-.604.32-1.237.32-1.902 0-.927-.163-1.623-.489-2.087-.326-.463-.84-.695-1.541-.695-.684 0-1.195.23-1.53.69-.334.46-.501 1.095-.501 1.907v1.564h-1.832v-1.428c0-1.395.325-2.493.975-3.293.65-.8 1.629-1.2 2.936-1.2 1.308 0 2.289.396 2.942 1.188.654.791.981 1.885.981 3.28 0 .723-.109 1.416-.327 2.08a7.415 7.415 0 0 1-.841 1.779 15.86 15.86 0 0 1-1.145 1.526c-.419.496-.837.977-1.252 1.44-.416.464-.797.921-1.144 1.373a6.57 6.57 0 0 0-.852 1.47 4.153 4.153 0 0 0-.332 1.62v.282h5.687v1.785h-7.628Zm9.209-4.284v-1.206h1.82v1.33c0 .812.168 1.44.507 1.882.338.444.846.666 1.523.666 1.354 0 2.03-.907 2.03-2.72v-1.367c0-.861-.178-1.508-.537-1.938-.358-.431-.905-.659-1.638-.683h-1.04v-1.761h1.137c.652-.024 1.162-.246 1.529-.665.366-.418.55-1.005.55-1.76v-.8c0-1.838-.677-2.757-2.031-2.757-.677 0-1.185.226-1.523.677-.34.452-.508 1.083-.508 1.895v.912h-1.819v-.8c0-1.387.326-2.475.978-3.263.651-.787 1.625-1.18 2.92-1.18 1.3 0 2.278.393 2.936 1.18.658.788.987 1.876.987 3.262v.443c0 .912-.178 1.679-.533 2.302a2.958 2.958 0 0 1-1.576 1.33c1.406.533 2.11 1.751 2.11 3.655v1.366c0 1.395-.33 2.487-.988 3.275-.658.787-1.636 1.181-2.936 1.181-1.295 0-2.269-.394-2.92-1.181-.652-.788-.978-1.88-.978-3.275Zm14.695.124c0 .82.172 1.45.517 1.889.344.44.86.658 1.55.658 1.378 0 2.068-.85 2.068-2.547v-9.33c0-.813-.17-1.44-.511-1.883-.34-.444-.86-.665-1.557-.665-.69 0-1.206.22-1.55.665-.345.443-.517 1.07-.517 1.882v9.33Zm-1.892-.099v-9.12c0-1.387.335-2.475 1.005-3.263.67-.787 1.654-1.181 2.954-1.181 1.311 0 2.308.394 2.988 1.181.68.788 1.02 1.876 1.02 3.262v9.121c0 1.37-.34 2.452-1.02 3.243-.68.792-1.677 1.188-2.988 1.188-1.291 0-2.274-.396-2.948-1.188-.673-.791-1.01-1.873-1.01-3.242Zm9.499 4.259v-17.65h1.94v8.53l4.621-8.53h1.951l-4.389 8.049 4.547 9.6h-1.988l-3.723-7.667-1.019 1.747v5.92h-1.94Zm9.852 0v-17.65h1.94v7.95h4.268v-7.95h1.94v17.65h-1.94v-7.939h-4.268v7.939h-1.94Zm12.116-5.244h3.777l-1.912-10.11-1.865 10.11Zm-2.787 5.244 3.321-17.65h2.851L108 37.394h-1.94l-.673-3.557h-4.406l-.657 3.557h-1.819Z" fill="#1C213F"/>
  </g>
  <defs>
    <clipPath id="a">
      <path fill="#fff" d="M0 0h108v40H0z"/>
    </clipPath>
  </defs>
</svg>
